<?xml version="1.0" encoding="utf-8"?>
<!-- Generator: Adobe Illustrator 25.4.1, SVG Export Plug-In . SVG Version: 6.00 Build 0)  -->
<svg version="1.1" id="Layer_1" xmlns="http://www.w3.org/2000/svg" xmlns:xlink="http://www.w3.org/1999/xlink" x="0px" y="0px"
	 viewBox="0 0 432 91.34" style="enable-background:new 0 0 432 91.34;" xml:space="preserve">
<style type="text/css">
	.st0{fill:#262262;}
	.st1{fill:#1B75BC;}
</style>
<g>
	<path class="st0" d="M174.7,40.38h-9v-1.08c0.79-0.05,1.45-0.15,1.98-0.31c0.52-0.15,0.79-0.34,0.79-0.56
		c0-0.09-0.01-0.2-0.03-0.34c-0.02-0.13-0.05-0.25-0.09-0.35l-1.79-4.85h-7.6c-0.29,0.71-0.52,1.33-0.69,1.86s-0.34,1.02-0.48,1.46
		c-0.13,0.44-0.22,0.79-0.27,1.07c-0.05,0.27-0.08,0.5-0.08,0.67c0,0.41,0.32,0.72,0.96,0.95c0.64,0.22,1.36,0.36,2.17,0.4v1.08
		h-8.15v-1.08c0.26-0.02,0.6-0.08,0.99-0.18c0.4-0.1,0.72-0.23,0.98-0.39c0.41-0.27,0.72-0.56,0.95-0.86
		c0.22-0.3,0.44-0.71,0.66-1.24c1.09-2.72,2.29-5.77,3.6-9.15c1.31-3.39,2.48-6.4,3.51-9.05h1.22l7.22,18.67
		c0.15,0.4,0.33,0.72,0.52,0.96c0.19,0.24,0.46,0.48,0.81,0.72c0.23,0.14,0.54,0.26,0.92,0.36c0.38,0.1,0.69,0.15,0.95,0.16V40.38z
		 M165.99,31.53l-3.28-8.4l-3.23,8.4H165.99z"/>
	<path class="st0" d="M182.13,40.38h-7.34v-1.01c0.23-0.02,0.48-0.04,0.75-0.07c0.26-0.02,0.48-0.06,0.66-0.11
		c0.28-0.09,0.5-0.25,0.64-0.48c0.14-0.23,0.21-0.53,0.21-0.89V20.38c0-0.37-0.08-0.71-0.24-1.03c-0.16-0.32-0.36-0.57-0.62-0.76
		c-0.18-0.12-0.52-0.23-1.01-0.34c-0.49-0.1-0.88-0.16-1.17-0.18v-0.98l5.66-0.34l0.21,0.23v20.64c0,0.36,0.07,0.65,0.2,0.88
		c0.13,0.23,0.35,0.4,0.64,0.53c0.22,0.1,0.44,0.18,0.66,0.23c0.22,0.05,0.47,0.09,0.74,0.11V40.38z"/>
	<path class="st0" d="M198.27,40.1c-0.48,0.17-0.9,0.31-1.26,0.42c-0.36,0.11-0.77,0.16-1.23,0.16c-0.79,0-1.43-0.19-1.9-0.56
		c-0.47-0.37-0.78-0.91-0.91-1.62h-0.09c-0.66,0.73-1.37,1.29-2.13,1.68c-0.76,0.39-1.67,0.58-2.74,0.58
		c-1.13,0-2.06-0.35-2.78-1.04c-0.73-0.69-1.09-1.6-1.09-2.72c0-0.58,0.08-1.1,0.24-1.56c0.16-0.46,0.41-0.87,0.73-1.24
		c0.25-0.3,0.59-0.58,1.01-0.82c0.42-0.24,0.81-0.43,1.17-0.57c0.46-0.17,1.39-0.49,2.78-0.96s2.34-0.83,2.83-1.1v-1.51
		c0-0.13-0.03-0.39-0.08-0.76c-0.06-0.38-0.18-0.73-0.36-1.07c-0.2-0.38-0.49-0.7-0.86-0.98c-0.37-0.28-0.9-0.42-1.58-0.42
		c-0.47,0-0.9,0.08-1.3,0.24s-0.68,0.32-0.85,0.5c0,0.2,0.05,0.5,0.15,0.9c0.1,0.4,0.15,0.76,0.15,1.1c0,0.36-0.16,0.68-0.48,0.98
		s-0.77,0.44-1.33,0.44c-0.51,0-0.88-0.18-1.12-0.54c-0.24-0.36-0.36-0.77-0.36-1.21c0-0.47,0.17-0.92,0.5-1.34
		c0.33-0.43,0.76-0.81,1.29-1.14c0.46-0.28,1.01-0.53,1.66-0.72s1.29-0.3,1.91-0.3c0.85,0,1.6,0.06,2.23,0.18
		c0.64,0.12,1.21,0.37,1.73,0.76c0.52,0.38,0.91,0.89,1.18,1.53c0.27,0.65,0.4,1.48,0.4,2.49c0,1.45-0.02,2.74-0.05,3.87
		c-0.03,1.12-0.05,2.35-0.05,3.68c0,0.4,0.07,0.71,0.21,0.95s0.35,0.43,0.63,0.59c0.15,0.09,0.39,0.14,0.72,0.15
		c0.33,0.01,0.67,0.02,1.01,0.02V40.1z M192.95,32.05c-0.86,0.25-1.62,0.5-2.27,0.75s-1.26,0.55-1.82,0.92
		c-0.51,0.35-0.91,0.76-1.21,1.23c-0.3,0.47-0.44,1.04-0.44,1.69c0,0.85,0.22,1.47,0.66,1.87c0.44,0.4,1,0.6,1.69,0.6
		c0.72,0,1.36-0.18,1.91-0.53c0.55-0.35,1.01-0.77,1.39-1.25L192.95,32.05z"/>
	<path class="st0" d="M206.72,40.77c-2.18,0-3.88-0.72-5.11-2.17s-1.85-3.38-1.85-5.81c0-1.06,0.17-2.05,0.5-2.97
		s0.81-1.76,1.44-2.51c0.6-0.72,1.35-1.3,2.26-1.75c0.9-0.44,1.89-0.66,2.96-0.66c1.47,0,2.67,0.35,3.6,1.06
		c0.93,0.71,1.39,1.67,1.39,2.89c0,0.51-0.12,0.96-0.37,1.35s-0.65,0.59-1.21,0.59c-0.6,0-1.07-0.15-1.4-0.46
		c-0.33-0.3-0.5-0.64-0.5-1.02c0-0.46,0.06-0.93,0.18-1.41s0.19-0.83,0.21-1.06c-0.18-0.31-0.45-0.52-0.81-0.63
		c-0.36-0.11-0.75-0.16-1.16-0.16c-0.49,0-0.95,0.1-1.39,0.31c-0.44,0.21-0.87,0.59-1.29,1.15c-0.38,0.51-0.68,1.19-0.91,2.06
		c-0.23,0.86-0.35,1.9-0.35,3.1c0,1.89,0.42,3.44,1.26,4.63c0.84,1.19,1.94,1.79,3.3,1.79c0.99,0,1.81-0.24,2.48-0.72
		c0.67-0.48,1.28-1.2,1.85-2.16l0.98,0.64c-0.67,1.2-1.56,2.15-2.65,2.85C209.03,40.42,207.89,40.77,206.72,40.77z"/>
	<path class="st0" d="M230.32,40.38h-7.4v-1.01c0.23-0.02,0.49-0.04,0.78-0.06s0.52-0.06,0.7-0.12c0.29-0.09,0.5-0.25,0.63-0.48
		c0.14-0.23,0.21-0.53,0.21-0.89v-7.73c0-1.07-0.25-1.89-0.76-2.47c-0.5-0.58-1.12-0.87-1.84-0.87c-0.53,0-1.02,0.08-1.48,0.25
		c-0.45,0.17-0.86,0.37-1.21,0.62c-0.35,0.25-0.61,0.51-0.79,0.76c-0.18,0.25-0.33,0.47-0.43,0.64v8.65c0,0.35,0.07,0.63,0.21,0.85
		c0.14,0.22,0.35,0.4,0.63,0.52c0.22,0.1,0.46,0.18,0.69,0.23c0.24,0.05,0.5,0.09,0.79,0.11v1.01h-7.37v-1.01
		c0.23-0.02,0.47-0.04,0.73-0.07c0.25-0.02,0.46-0.06,0.64-0.11c0.28-0.09,0.49-0.25,0.64-0.48s0.21-0.53,0.21-0.89V20.28
		c0-0.35-0.08-0.69-0.24-1.04s-0.36-0.61-0.62-0.78c-0.18-0.13-0.51-0.23-0.97-0.28c-0.46-0.06-0.84-0.09-1.12-0.11v-0.98l5.57-0.34
		l0.21,0.23v10.5h0.06c0.34-0.34,0.64-0.63,0.92-0.89c0.28-0.26,0.64-0.53,1.09-0.82c0.39-0.24,0.84-0.45,1.37-0.61
		c0.52-0.16,1.11-0.24,1.76-0.24c1.35,0,2.38,0.42,3.1,1.27c0.72,0.85,1.08,2.07,1.08,3.67v7.83c0,0.36,0.06,0.64,0.19,0.86
		c0.13,0.22,0.34,0.39,0.64,0.51c0.24,0.09,0.45,0.16,0.64,0.21s0.44,0.08,0.75,0.1V40.38z"/>
	<path class="st0" d="M248.26,40.1l-4.91,0.34l-0.23-0.21v-1.91h-0.09c-0.24,0.25-0.52,0.53-0.82,0.82
		c-0.3,0.29-0.66,0.55-1.05,0.79c-0.46,0.27-0.9,0.48-1.33,0.63c-0.43,0.14-1.03,0.21-1.81,0.21c-1.33,0-2.34-0.43-3.04-1.3
		c-0.7-0.87-1.04-2.13-1.04-3.79v-7.19c0-0.37-0.07-0.67-0.21-0.92c-0.14-0.25-0.34-0.46-0.61-0.65c-0.18-0.12-0.42-0.21-0.69-0.27
		s-0.57-0.09-0.88-0.11v-1.01l5.02-0.37l0.23,0.21v10.45c0,1.09,0.24,1.91,0.73,2.46c0.49,0.55,1.07,0.82,1.75,0.82
		c0.56,0,1.06-0.09,1.5-0.26c0.44-0.17,0.8-0.38,1.1-0.61c0.27-0.21,0.52-0.44,0.72-0.68c0.21-0.24,0.37-0.46,0.48-0.66v-8.52
		c0-0.34-0.07-0.63-0.21-0.89c-0.14-0.26-0.34-0.48-0.6-0.66c-0.18-0.12-0.46-0.2-0.82-0.22c-0.36-0.03-0.77-0.05-1.21-0.07v-1.01
		l5.48-0.37l0.23,0.21V37.3c0,0.35,0.07,0.64,0.21,0.88c0.14,0.24,0.34,0.45,0.59,0.62c0.18,0.11,0.4,0.19,0.66,0.22
		c0.25,0.04,0.53,0.06,0.84,0.07V40.1z"/>
	<path class="st0" d="M264.36,40.1c-0.48,0.17-0.9,0.31-1.26,0.42c-0.36,0.11-0.77,0.16-1.23,0.16c-0.79,0-1.43-0.19-1.9-0.56
		c-0.47-0.37-0.78-0.91-0.91-1.62h-0.09c-0.66,0.73-1.37,1.29-2.13,1.68c-0.76,0.39-1.67,0.58-2.74,0.58
		c-1.13,0-2.06-0.35-2.78-1.04c-0.73-0.69-1.09-1.6-1.09-2.72c0-0.58,0.08-1.1,0.24-1.56c0.16-0.46,0.41-0.87,0.73-1.24
		c0.25-0.3,0.59-0.58,1.01-0.82c0.42-0.24,0.81-0.43,1.17-0.57c0.46-0.17,1.38-0.49,2.78-0.96c1.4-0.47,2.34-0.83,2.83-1.1v-1.51
		c0-0.13-0.03-0.39-0.08-0.76c-0.06-0.38-0.17-0.73-0.36-1.07c-0.2-0.38-0.49-0.7-0.86-0.98c-0.37-0.28-0.9-0.42-1.58-0.42
		c-0.47,0-0.9,0.08-1.3,0.24s-0.68,0.32-0.85,0.5c0,0.2,0.05,0.5,0.15,0.9c0.1,0.4,0.14,0.76,0.14,1.1c0,0.36-0.16,0.68-0.48,0.98
		s-0.77,0.44-1.33,0.44c-0.51,0-0.88-0.18-1.12-0.54c-0.24-0.36-0.36-0.77-0.36-1.21c0-0.47,0.17-0.92,0.5-1.34
		c0.33-0.43,0.76-0.81,1.29-1.14c0.46-0.28,1.01-0.53,1.66-0.72c0.65-0.2,1.29-0.3,1.91-0.3c0.85,0,1.6,0.06,2.24,0.18
		c0.63,0.12,1.21,0.37,1.73,0.76c0.52,0.38,0.91,0.89,1.18,1.53s0.4,1.48,0.4,2.49c0,1.45-0.01,2.74-0.05,3.87
		c-0.03,1.12-0.04,2.35-0.04,3.68c0,0.4,0.07,0.71,0.21,0.95c0.14,0.23,0.35,0.43,0.63,0.59c0.15,0.09,0.39,0.14,0.72,0.15
		c0.33,0.01,0.67,0.02,1.01,0.02V40.1z M259.04,32.05c-0.87,0.25-1.62,0.5-2.27,0.75c-0.65,0.24-1.26,0.55-1.82,0.92
		c-0.51,0.35-0.91,0.76-1.21,1.23c-0.29,0.47-0.44,1.04-0.44,1.69c0,0.85,0.22,1.47,0.66,1.87c0.44,0.4,1,0.6,1.69,0.6
		c0.72,0,1.36-0.18,1.91-0.53c0.55-0.35,1.01-0.77,1.39-1.25L259.04,32.05z"/>
	<path class="st0" d="M283.31,40.89c-1.29,0-2.53-0.25-3.71-0.76c-1.18-0.51-2.23-1.24-3.15-2.2c-0.9-0.96-1.63-2.12-2.16-3.5
		c-0.54-1.38-0.81-2.93-0.81-4.66c0-1.73,0.26-3.3,0.79-4.71s1.26-2.62,2.19-3.64c0.92-1.01,2.02-1.79,3.28-2.34
		s2.61-0.82,4.04-0.82c1.07,0,2.03,0.13,2.9,0.4c0.86,0.26,1.69,0.64,2.47,1.11l0.63-1.04H291l0.14,7.72h-1.25
		c-0.16-0.75-0.41-1.57-0.73-2.45s-0.71-1.63-1.14-2.24c-0.49-0.69-1.07-1.23-1.74-1.62s-1.44-0.59-2.3-0.59
		c-0.99,0-1.9,0.22-2.75,0.66c-0.85,0.44-1.58,1.08-2.2,1.94c-0.59,0.83-1.05,1.87-1.39,3.15c-0.33,1.27-0.5,2.69-0.5,4.26
		c0,1.38,0.18,2.65,0.53,3.81c0.35,1.16,0.85,2.17,1.5,3.05c0.65,0.87,1.42,1.54,2.31,2.03c0.89,0.49,1.88,0.73,2.98,0.73
		c0.82,0,1.58-0.13,2.27-0.39c0.69-0.26,1.29-0.6,1.8-1.03c0.51-0.45,0.95-0.96,1.34-1.53c0.39-0.57,0.7-1.19,0.94-1.86l1.14,0.55
		c-0.87,2.15-2.03,3.68-3.48,4.6S285.31,40.89,283.31,40.89z"/>
	<path class="st0" d="M308.13,32.7c0,1.06-0.17,2.1-0.5,3.12c-0.34,1.02-0.81,1.89-1.44,2.6c-0.7,0.81-1.52,1.42-2.44,1.82
		c-0.93,0.4-1.96,0.59-3.12,0.59c-0.96,0-1.87-0.18-2.73-0.54s-1.63-0.89-2.31-1.58c-0.66-0.68-1.19-1.51-1.58-2.49
		c-0.39-0.98-0.59-2.08-0.59-3.3c0-2.35,0.68-4.27,2.05-5.77c1.37-1.49,3.16-2.24,5.38-2.24c2.11,0,3.85,0.71,5.22,2.13
		C307.44,28.45,308.13,30.34,308.13,32.7z M304.97,32.73c0-0.76-0.08-1.57-0.23-2.42c-0.15-0.85-0.38-1.57-0.69-2.16
		c-0.33-0.63-0.75-1.14-1.28-1.52c-0.53-0.38-1.18-0.57-1.94-0.57c-0.79,0-1.45,0.19-2.01,0.58c-0.56,0.39-1.01,0.92-1.35,1.59
		c-0.33,0.62-0.56,1.33-0.69,2.12c-0.13,0.79-0.2,1.56-0.2,2.3c0,0.98,0.08,1.88,0.24,2.71c0.16,0.83,0.41,1.57,0.76,2.22
		c0.35,0.65,0.78,1.16,1.31,1.53c0.52,0.37,1.17,0.56,1.95,0.56c1.27,0,2.28-0.62,3.03-1.85C304.6,36.6,304.97,34.9,304.97,32.73z"
		/>
	<path class="st0" d="M326.42,40.1l-4.91,0.34l-0.23-0.21v-1.91h-0.09c-0.24,0.25-0.52,0.53-0.82,0.82
		c-0.3,0.29-0.66,0.55-1.05,0.79c-0.46,0.27-0.9,0.48-1.33,0.63c-0.43,0.14-1.03,0.21-1.81,0.21c-1.33,0-2.34-0.43-3.04-1.3
		c-0.7-0.87-1.04-2.13-1.04-3.79v-7.19c0-0.37-0.07-0.67-0.21-0.92c-0.14-0.25-0.34-0.46-0.61-0.65c-0.18-0.12-0.42-0.21-0.69-0.27
		s-0.57-0.09-0.88-0.11v-1.01l5.02-0.37l0.23,0.21v10.45c0,1.09,0.24,1.91,0.73,2.46c0.49,0.55,1.07,0.82,1.75,0.82
		c0.56,0,1.06-0.09,1.5-0.26c0.44-0.17,0.8-0.38,1.1-0.61c0.27-0.21,0.52-0.44,0.72-0.68c0.21-0.24,0.37-0.46,0.48-0.66v-8.52
		c0-0.34-0.07-0.63-0.21-0.89c-0.14-0.26-0.34-0.48-0.6-0.66c-0.18-0.12-0.46-0.2-0.82-0.22c-0.36-0.03-0.77-0.05-1.21-0.07v-1.01
		l5.48-0.37l0.23,0.21V37.3c0,0.35,0.07,0.64,0.21,0.88c0.14,0.24,0.34,0.45,0.59,0.62c0.18,0.11,0.4,0.19,0.66,0.22
		c0.25,0.04,0.53,0.06,0.84,0.07V40.1z"/>
	<path class="st0" d="M344.88,40.38h-7.35v-1.01c0.23-0.02,0.49-0.04,0.77-0.06c0.28-0.02,0.51-0.06,0.69-0.12
		c0.28-0.09,0.5-0.25,0.63-0.48c0.14-0.23,0.21-0.53,0.21-0.89v-7.73c0-1.07-0.25-1.89-0.76-2.47s-1.12-0.87-1.84-0.87
		c-0.54,0-1.03,0.08-1.48,0.25c-0.45,0.17-0.85,0.37-1.19,0.62c-0.34,0.23-0.6,0.49-0.8,0.75c-0.2,0.27-0.34,0.49-0.44,0.65v8.65
		c0,0.35,0.07,0.63,0.21,0.85c0.14,0.22,0.36,0.4,0.64,0.52c0.21,0.1,0.45,0.18,0.69,0.23c0.25,0.05,0.51,0.09,0.77,0.11v1.01h-7.37
		v-1.01c0.23-0.02,0.48-0.04,0.72-0.06s0.46-0.06,0.65-0.12c0.28-0.09,0.5-0.25,0.63-0.48s0.21-0.53,0.21-0.89v-9.28
		c0-0.35-0.07-0.66-0.22-0.95c-0.15-0.29-0.35-0.53-0.62-0.71c-0.19-0.12-0.42-0.21-0.69-0.27c-0.26-0.06-0.55-0.09-0.85-0.11v-1.01
		l5-0.34l0.21,0.21v2.12h0.08c0.24-0.24,0.55-0.54,0.92-0.88c0.37-0.34,0.71-0.62,1.04-0.83c0.38-0.24,0.82-0.45,1.34-0.61
		s1.1-0.24,1.75-0.24c1.44,0,2.51,0.45,3.21,1.35s1.04,2.1,1.04,3.59v7.83c0,0.36,0.06,0.64,0.18,0.86
		c0.12,0.22,0.33,0.39,0.63,0.51c0.24,0.1,0.46,0.17,0.63,0.21c0.18,0.04,0.42,0.07,0.74,0.09V40.38z"/>
	<path class="st0" d="M356.02,39.72c-0.66,0.27-1.29,0.51-1.88,0.69s-1.31,0.28-2.17,0.28c-1.26,0-2.15-0.32-2.66-0.95
		c-0.51-0.64-0.77-1.53-0.77-2.69V26.86h-2.72v-1.46h2.78v-4.68h2.78v4.68h4.32v1.46h-4.29v8.41c0,0.63,0.02,1.16,0.07,1.58
		c0.05,0.42,0.16,0.79,0.33,1.11c0.16,0.3,0.41,0.52,0.73,0.67c0.33,0.15,0.76,0.23,1.31,0.23c0.25,0,0.63-0.02,1.12-0.07
		s0.84-0.1,1.05-0.18V39.72z"/>
	<path class="st0" d="M356.37,45.29c0-0.51,0.14-0.92,0.42-1.24c0.28-0.32,0.63-0.48,1.05-0.48c0.33,0,0.6,0.06,0.84,0.18
		c0.23,0.12,0.44,0.28,0.63,0.47c0.15,0.15,0.32,0.36,0.49,0.62c0.17,0.26,0.31,0.48,0.41,0.65c0.51-0.27,1.12-0.99,1.82-2.15
		c0.71-1.16,1.22-2.17,1.53-3.04c-0.97-2.41-1.84-4.56-2.62-6.47c-0.78-1.9-1.6-3.87-2.46-5.9c-0.19-0.47-0.52-0.83-0.98-1.09
		c-0.46-0.26-0.92-0.42-1.37-0.5v-1.01h6.87v1.07c-0.3,0.01-0.67,0.07-1.1,0.19s-0.64,0.25-0.64,0.4c0,0.06,0.02,0.16,0.07,0.3
		c0.05,0.14,0.1,0.29,0.16,0.44c0.39,1.01,0.97,2.46,1.76,4.35c0.79,1.9,1.41,3.41,1.84,4.55c0.46-1.09,0.93-2.21,1.43-3.38
		c0.49-1.16,1.05-2.54,1.66-4.12c0.07-0.19,0.17-0.46,0.31-0.8c0.13-0.34,0.2-0.63,0.2-0.88c0-0.26-0.23-0.51-0.69-0.74
		s-0.9-0.37-1.32-0.42v-0.98h5.59v0.95c-0.31,0.05-0.71,0.23-1.21,0.53c-0.5,0.3-0.87,0.72-1.11,1.27
		c-1.21,2.81-2.29,5.37-3.23,7.67c-0.94,2.31-1.66,4.01-2.14,5.1c-0.64,1.42-1.21,2.53-1.72,3.33c-0.5,0.8-0.99,1.43-1.47,1.88
		c-0.47,0.43-0.89,0.71-1.27,0.86c-0.38,0.15-0.78,0.22-1.18,0.22c-0.79,0-1.42-0.19-1.87-0.56
		C356.6,46.21,356.37,45.78,356.37,45.29z"/>
	<path class="st1" d="M174.44,68.02l-0.43,6.94h-19.94v-1.19c0.36-0.03,0.77-0.08,1.25-0.15c0.48-0.07,0.79-0.13,0.95-0.19
		c0.37-0.14,0.62-0.34,0.76-0.6c0.14-0.25,0.21-0.58,0.21-0.98V56.6c0-0.37-0.06-0.67-0.17-0.91c-0.11-0.24-0.38-0.46-0.81-0.65
		c-0.32-0.14-0.69-0.26-1.14-0.34c-0.44-0.09-0.8-0.15-1.06-0.19v-1.19h11.88v1.19c-0.33,0.03-0.71,0.07-1.15,0.13
		c-0.44,0.06-0.83,0.14-1.15,0.24c-0.4,0.13-0.66,0.34-0.79,0.62s-0.2,0.6-0.2,0.95v14.23c0,0.67,0.05,1.2,0.14,1.59
		c0.09,0.39,0.27,0.67,0.53,0.85c0.26,0.19,0.63,0.32,1.11,0.37c0.47,0.06,1.13,0.08,1.96,0.08c0.81,0,1.6-0.05,2.37-0.15
		s1.32-0.31,1.66-0.63c0.52-0.52,1.05-1.25,1.59-2.19s0.98-1.8,1.3-2.59H174.44z"/>
	<path class="st1" d="M187.41,74.97H175.4v-1.19c0.27-0.02,0.68-0.05,1.21-0.09c0.53-0.04,0.9-0.1,1.11-0.18
		c0.38-0.15,0.63-0.35,0.77-0.6c0.14-0.25,0.21-0.57,0.21-0.95V56.6c0-0.35-0.07-0.65-0.2-0.92c-0.13-0.26-0.39-0.48-0.78-0.64
		c-0.24-0.1-0.6-0.21-1.08-0.31s-0.89-0.18-1.24-0.22v-1.19h12.01v1.19c-0.31,0.03-0.69,0.07-1.14,0.13
		c-0.46,0.06-0.84,0.14-1.16,0.24c-0.4,0.13-0.66,0.34-0.79,0.62c-0.13,0.28-0.2,0.6-0.2,0.95v15.33c0,0.37,0.07,0.68,0.21,0.94
		c0.14,0.26,0.4,0.47,0.79,0.63c0.21,0.09,0.57,0.18,1.06,0.27c0.49,0.09,0.91,0.14,1.24,0.16V74.97z"/>
	<path class="st1" d="M208.54,65.03c0.65,0.45,1.18,1.01,1.59,1.69s0.61,1.47,0.61,2.39c0,1.1-0.23,2.03-0.69,2.78
		c-0.46,0.76-1.13,1.36-1.99,1.79c-0.92,0.47-1.97,0.8-3.17,0.99c-1.2,0.19-2.6,0.29-4.22,0.29h-11.24v-1.19
		c0.31-0.03,0.71-0.08,1.19-0.14s0.81-0.13,1.01-0.21c0.38-0.15,0.63-0.35,0.77-0.6c0.14-0.25,0.21-0.57,0.21-0.97V56.6
		c0-0.37-0.06-0.67-0.17-0.92c-0.11-0.24-0.38-0.46-0.81-0.64c-0.32-0.13-0.68-0.24-1.1-0.33s-0.78-0.16-1.1-0.21v-1.19h11.76
		c2.96,0,5.1,0.41,6.41,1.22c1.31,0.81,1.97,2.01,1.97,3.6c0,0.73-0.15,1.38-0.44,1.93c-0.3,0.55-0.72,1.04-1.27,1.44
		c-0.5,0.38-1.09,0.7-1.79,0.98c-0.69,0.27-1.43,0.5-2.23,0.69v0.29c0.79,0.08,1.62,0.26,2.47,0.53S207.91,64.61,208.54,65.03z
		 M203.63,58.52c0-1.2-0.34-2.14-1.01-2.81s-1.69-1.01-3.04-1.01c-0.19,0-0.44,0.01-0.76,0.02c-0.31,0.02-0.58,0.03-0.8,0.04v8.02
		h0.79c1.65,0,2.86-0.38,3.65-1.15C203.23,60.87,203.63,59.83,203.63,58.52z M204.69,68.92c0-1.51-0.45-2.66-1.34-3.47
		c-0.9-0.8-2.18-1.21-3.86-1.21c-0.19,0-0.45,0.01-0.77,0.02c-0.32,0.02-0.56,0.03-0.71,0.04v7.93c0.09,0.38,0.38,0.7,0.85,0.96
		s1.06,0.39,1.74,0.39c1.21,0,2.19-0.41,2.95-1.22S204.69,70.39,204.69,68.92z"/>
	<path class="st1" d="M237.94,74.97h-8.31c-1.43-2.2-2.63-3.95-3.57-5.25c-0.95-1.3-2.13-2.81-3.54-4.52h-0.84v6.58
		c0,0.37,0.07,0.68,0.21,0.93c0.14,0.25,0.4,0.47,0.79,0.64c0.19,0.08,0.49,0.17,0.91,0.25s0.77,0.14,1.06,0.18v1.19h-11.55v-1.19
		c0.29-0.03,0.68-0.07,1.17-0.13c0.48-0.06,0.83-0.12,1.03-0.21c0.39-0.16,0.65-0.37,0.78-0.62c0.13-0.25,0.2-0.57,0.2-0.95V56.6
		c0-0.37-0.06-0.67-0.17-0.92c-0.11-0.24-0.38-0.46-0.81-0.64c-0.33-0.13-0.71-0.24-1.15-0.34c-0.44-0.09-0.79-0.16-1.04-0.2v-1.19
		h12.14c2.71,0,4.78,0.42,6.19,1.27s2.11,2.13,2.11,3.85c0,1.52-0.44,2.73-1.3,3.65s-2.19,1.64-3.97,2.16
		c0.69,0.9,1.5,1.93,2.42,3.11c0.92,1.18,1.88,2.38,2.88,3.62c0.31,0.4,0.74,0.88,1.29,1.46c0.54,0.57,1.02,0.93,1.44,1.06
		c0.23,0.07,0.53,0.13,0.89,0.18s0.62,0.08,0.77,0.09V74.97z M227.55,58.87c0-1.44-0.4-2.5-1.21-3.17s-1.96-1-3.46-1h-1.21v9.06
		h1.16c1.5,0,2.66-0.39,3.48-1.17C227.13,61.81,227.55,60.57,227.55,58.87z"/>
	<path class="st1" d="M261.49,74.97H249.7v-1.19c0.55-0.04,1.19-0.14,1.93-0.3s1.11-0.35,1.11-0.59c0-0.08-0.01-0.17-0.02-0.27
		c-0.02-0.1-0.06-0.24-0.13-0.41l-1.85-4.49h-7.47c-0.17,0.42-0.36,0.91-0.57,1.46c-0.21,0.56-0.39,1.06-0.54,1.49
		c-0.19,0.57-0.31,0.98-0.34,1.24c-0.04,0.25-0.05,0.43-0.05,0.53c0,0.33,0.25,0.6,0.74,0.83c0.49,0.23,1.31,0.39,2.46,0.5v1.19
		h-8.88v-1.19c0.34-0.02,0.71-0.07,1.14-0.16s0.75-0.21,1-0.36c0.42-0.24,0.77-0.54,1.06-0.9c0.29-0.36,0.53-0.78,0.72-1.27
		c1.18-2.86,2.36-5.72,3.55-8.59s2.49-6.03,3.93-9.49h3.05c1.99,4.9,3.55,8.78,4.68,11.63s2.09,5.21,2.88,7.08
		c0.13,0.31,0.3,0.58,0.5,0.83s0.49,0.49,0.87,0.71c0.28,0.16,0.62,0.28,0.99,0.37c0.38,0.08,0.72,0.13,1.02,0.15V74.97z
		 M250.12,66.21l-3.13-7.83l-3.09,7.83H250.12z"/>
	<path class="st1" d="M286.54,74.97h-8.31c-1.43-2.2-2.62-3.95-3.57-5.25c-0.95-1.3-2.13-2.81-3.54-4.52h-0.84v6.58
		c0,0.37,0.07,0.68,0.21,0.93s0.4,0.47,0.79,0.64c0.19,0.08,0.5,0.17,0.91,0.25s0.77,0.14,1.06,0.18v1.19h-11.55v-1.19
		c0.29-0.03,0.68-0.07,1.17-0.13c0.48-0.06,0.83-0.12,1.03-0.21c0.39-0.16,0.65-0.37,0.78-0.62c0.13-0.25,0.2-0.57,0.2-0.95V56.6
		c0-0.37-0.06-0.67-0.17-0.92c-0.11-0.24-0.38-0.46-0.81-0.64c-0.33-0.13-0.71-0.24-1.15-0.34c-0.44-0.09-0.79-0.16-1.04-0.2v-1.19
		h12.14c2.72,0,4.78,0.42,6.19,1.27c1.41,0.85,2.11,2.13,2.11,3.85c0,1.52-0.43,2.73-1.3,3.65c-0.87,0.92-2.19,1.64-3.97,2.16
		c0.69,0.9,1.5,1.93,2.42,3.11c0.92,1.18,1.88,2.38,2.88,3.62c0.32,0.4,0.75,0.88,1.29,1.46c0.54,0.57,1.02,0.93,1.44,1.06
		c0.23,0.07,0.53,0.13,0.89,0.18s0.62,0.08,0.77,0.09V74.97z M276.15,58.87c0-1.44-0.4-2.5-1.21-3.17s-1.96-1-3.46-1h-1.21v9.06
		h1.16c1.5,0,2.66-0.39,3.48-1.17C275.74,61.81,276.15,60.57,276.15,58.87z"/>
	<path class="st1" d="M309.44,54.51c-0.37,0.04-0.7,0.11-1,0.2c-0.3,0.09-0.59,0.22-0.87,0.38c-0.44,0.24-0.83,0.56-1.17,0.94
		c-0.34,0.38-0.67,0.81-1,1.27c-0.66,0.97-1.35,2.02-2.08,3.15c-0.73,1.13-1.52,2.38-2.37,3.75c-0.56,0.86-0.9,1.53-1.03,1.99
		c-0.13,0.46-0.19,1.26-0.19,2.4v3.07c0,0.37,0.07,0.69,0.21,0.96c0.14,0.27,0.4,0.5,0.79,0.67c0.17,0.07,0.54,0.17,1.1,0.28
		c0.56,0.12,0.97,0.19,1.24,0.21v1.19H291v-1.19c0.28-0.02,0.69-0.06,1.23-0.12c0.53-0.06,0.91-0.13,1.12-0.21
		c0.38-0.16,0.63-0.38,0.77-0.65c0.14-0.27,0.21-0.6,0.21-0.98v-3.81c0-0.34-0.01-0.63-0.02-0.89c-0.01-0.25-0.05-0.47-0.11-0.64
		c-0.07-0.19-0.19-0.44-0.37-0.74s-0.4-0.69-0.67-1.17c-0.78-1.37-1.54-2.67-2.27-3.91c-0.73-1.23-1.43-2.38-2.09-3.46
		c-0.35-0.56-0.69-1.01-1.04-1.35c-0.35-0.34-0.71-0.62-1.08-0.83c-0.27-0.15-0.61-0.27-1-0.35c-0.39-0.08-0.75-0.13-1.06-0.15
		v-1.19h12.4v1.19c-1.14,0.03-1.9,0.11-2.3,0.24c-0.4,0.13-0.59,0.3-0.59,0.53c0,0.11,0.07,0.34,0.22,0.67
		c0.15,0.34,0.41,0.85,0.79,1.56c0.34,0.66,0.85,1.57,1.52,2.73c0.67,1.16,1.47,2.51,2.4,4.07c1.93-3.06,3.25-5.19,3.98-6.41
		s1.08-1.96,1.08-2.23c0-0.35-0.21-0.61-0.64-0.79c-0.42-0.18-1.11-0.3-2.06-0.35v-1.19h8.02V54.51z"/>
	<path class="st0" d="M338.18,64.27c0,1.84-0.35,3.44-1.04,4.79s-1.59,2.46-2.7,3.33c-1.12,0.86-2.38,1.51-3.77,1.94
		s-2.83,0.64-4.32,0.64h-8.97v-1.08c0.29,0,0.68-0.03,1.15-0.08c0.47-0.06,0.79-0.12,0.94-0.19c0.3-0.13,0.53-0.33,0.66-0.59
		c0.14-0.26,0.21-0.57,0.21-0.94V56.46c0-0.35-0.06-0.66-0.18-0.93c-0.12-0.27-0.35-0.49-0.69-0.66c-0.32-0.15-0.66-0.26-1.02-0.34
		c-0.37-0.07-0.68-0.12-0.95-0.14v-1.08h9.46c1.3,0,2.58,0.2,3.84,0.6c1.26,0.4,2.36,0.94,3.29,1.62c1.27,0.91,2.27,2.09,2.99,3.55
		C337.82,60.56,338.18,62.29,338.18,64.27z M334.44,64.26c0-1.45-0.19-2.77-0.58-3.94s-0.95-2.2-1.69-3.07
		c-0.7-0.83-1.56-1.49-2.59-1.97c-1.02-0.48-2.16-0.72-3.41-0.72c-0.42,0-0.89,0.01-1.41,0.02c-0.52,0.02-0.91,0.03-1.17,0.04v16.63
		c0,0.92,0.27,1.56,0.81,1.92c0.54,0.36,1.37,0.53,2.49,0.53c1.29,0,2.42-0.23,3.39-0.69c0.97-0.46,1.75-1.09,2.35-1.91
		c0.63-0.85,1.09-1.84,1.38-2.96C334.3,67.04,334.44,65.74,334.44,64.26z"/>
	<path class="st0" d="M347.75,74.97h-7.26v-1.01c0.23-0.02,0.48-0.04,0.72-0.06s0.47-0.06,0.65-0.12c0.28-0.09,0.5-0.25,0.63-0.48
		c0.14-0.23,0.21-0.53,0.21-0.89v-9.28c0-0.33-0.07-0.62-0.22-0.89c-0.15-0.27-0.35-0.5-0.62-0.68c-0.19-0.12-0.47-0.23-0.84-0.31
		s-0.7-0.14-1.01-0.16v-1.01l5.31-0.34l0.21,0.21v12.27c0,0.36,0.07,0.65,0.2,0.88c0.14,0.23,0.35,0.41,0.64,0.52
		c0.22,0.09,0.44,0.17,0.65,0.22c0.21,0.06,0.45,0.09,0.71,0.11V74.97z M345.84,53.81c0,0.58-0.19,1.09-0.57,1.52
		c-0.38,0.43-0.85,0.65-1.41,0.65c-0.52,0-0.97-0.21-1.35-0.62c-0.38-0.41-0.57-0.88-0.57-1.41c0-0.56,0.19-1.05,0.57-1.46
		c0.38-0.42,0.83-0.63,1.35-0.63c0.58,0,1.06,0.2,1.43,0.59C345.65,52.83,345.84,53.29,345.84,53.81z"/>
	<path class="st0" d="M359.54,67.6c0.42,0.37,0.74,0.79,0.96,1.27c0.22,0.48,0.34,1.06,0.34,1.75c0,1.39-0.52,2.53-1.56,3.42
		c-1.04,0.88-2.39,1.33-4.05,1.33c-0.88,0-1.68-0.16-2.42-0.47c-0.74-0.32-1.26-0.6-1.58-0.87l-0.31,0.99h-1.14l-0.15-5.23h1.05
		c0.08,0.4,0.25,0.86,0.52,1.39c0.26,0.53,0.58,1.01,0.96,1.44c0.4,0.45,0.87,0.83,1.43,1.13c0.55,0.31,1.18,0.46,1.87,0.46
		c0.98,0,1.73-0.22,2.26-0.67c0.53-0.45,0.79-1.08,0.79-1.91c0-0.43-0.08-0.8-0.25-1.11c-0.17-0.31-0.42-0.58-0.74-0.82
		c-0.34-0.23-0.75-0.44-1.24-0.63c-0.49-0.19-1.03-0.37-1.63-0.56c-0.48-0.14-1.01-0.34-1.59-0.59c-0.58-0.25-1.09-0.54-1.5-0.88
		c-0.45-0.36-0.81-0.79-1.1-1.31c-0.29-0.52-0.43-1.13-0.43-1.83c0-1.23,0.46-2.27,1.37-3.13c0.92-0.85,2.14-1.28,3.68-1.28
		c0.59,0,1.19,0.08,1.81,0.23c0.62,0.15,1.12,0.34,1.5,0.55l0.35-0.79h1.1l0.23,4.84h-1.05c-0.21-1.08-0.67-1.96-1.38-2.64
		s-1.57-1.02-2.59-1.02c-0.83,0-1.49,0.21-1.97,0.63c-0.48,0.42-0.72,0.93-0.72,1.52c0,0.46,0.08,0.84,0.24,1.14
		c0.16,0.31,0.39,0.56,0.71,0.78c0.31,0.2,0.69,0.39,1.15,0.57c0.46,0.18,1.03,0.38,1.72,0.6c0.67,0.21,1.3,0.46,1.9,0.75
		S359.15,67.25,359.54,67.6z"/>
	<path class="st0" d="M372.4,74.31c-0.66,0.27-1.29,0.51-1.88,0.69s-1.31,0.28-2.17,0.28c-1.26,0-2.15-0.32-2.66-0.95
		c-0.51-0.64-0.77-1.53-0.77-2.69V61.45h-2.72v-1.46h2.78V55.3h2.78v4.68h4.32v1.46h-4.29v8.41c0,0.63,0.02,1.16,0.07,1.58
		c0.05,0.42,0.16,0.79,0.33,1.11c0.16,0.3,0.41,0.52,0.73,0.67c0.33,0.15,0.76,0.23,1.31,0.23c0.25,0,0.63-0.02,1.12-0.07
		s0.84-0.1,1.05-0.18V74.31z"/>
	<path class="st0" d="M385.41,61.86c0,0.52-0.13,0.98-0.38,1.38c-0.25,0.4-0.65,0.6-1.17,0.6c-0.57,0-1-0.15-1.3-0.44
		s-0.45-0.62-0.45-0.98c0-0.22,0.02-0.43,0.05-0.61c0.04-0.18,0.07-0.37,0.1-0.55c-0.48,0-1.04,0.19-1.68,0.58
		c-0.64,0.39-1.18,0.94-1.63,1.65v8.76c0,0.36,0.07,0.65,0.21,0.87c0.14,0.22,0.35,0.39,0.65,0.5c0.25,0.1,0.58,0.18,0.98,0.23
		c0.4,0.05,0.75,0.09,1.04,0.11v1.01h-7.93v-1.01c0.23-0.02,0.48-0.04,0.72-0.06s0.46-0.06,0.65-0.12c0.28-0.09,0.5-0.25,0.63-0.48
		s0.21-0.53,0.21-0.89v-9.28c0-0.31-0.07-0.63-0.22-0.93s-0.35-0.55-0.62-0.73c-0.19-0.12-0.42-0.21-0.69-0.27
		c-0.26-0.06-0.55-0.09-0.85-0.11v-1.01l5-0.34l0.21,0.21v2.12h0.08c0.63-0.82,1.33-1.45,2.11-1.88c0.77-0.43,1.48-0.64,2.12-0.64
		s1.16,0.21,1.56,0.63C385.21,60.6,385.41,61.16,385.41,61.86z"/>
	<path class="st0" d="M393.99,74.97h-7.26v-1.01c0.23-0.02,0.48-0.04,0.72-0.06s0.47-0.06,0.65-0.12c0.28-0.09,0.5-0.25,0.63-0.48
		c0.14-0.23,0.21-0.53,0.21-0.89v-9.28c0-0.33-0.07-0.62-0.22-0.89c-0.15-0.27-0.35-0.5-0.62-0.68c-0.19-0.12-0.47-0.23-0.84-0.31
		s-0.7-0.14-1.01-0.16v-1.01l5.31-0.34l0.21,0.21v12.27c0,0.36,0.07,0.65,0.2,0.88c0.14,0.23,0.35,0.41,0.64,0.52
		c0.22,0.09,0.44,0.17,0.65,0.22c0.21,0.06,0.45,0.09,0.71,0.11V74.97z M392.08,53.81c0,0.58-0.19,1.09-0.57,1.52
		c-0.38,0.43-0.85,0.65-1.41,0.65c-0.52,0-0.97-0.21-1.35-0.62c-0.38-0.41-0.57-0.88-0.57-1.41c0-0.56,0.19-1.05,0.57-1.46
		c0.38-0.42,0.83-0.63,1.35-0.63c0.58,0,1.06,0.2,1.43,0.59C391.89,52.83,392.08,53.29,392.08,53.81z"/>
	<path class="st0" d="M402.8,75.36c-2.18,0-3.88-0.72-5.11-2.17s-1.85-3.38-1.85-5.81c0-1.06,0.17-2.05,0.5-2.97
		c0.33-0.92,0.81-1.76,1.44-2.51c0.6-0.72,1.35-1.3,2.26-1.75s1.89-0.66,2.96-0.66c1.47,0,2.67,0.35,3.6,1.06
		c0.93,0.71,1.39,1.67,1.39,2.89c0,0.51-0.12,0.96-0.37,1.35s-0.65,0.59-1.21,0.59c-0.6,0-1.07-0.15-1.4-0.46
		c-0.33-0.3-0.5-0.64-0.5-1.02c0-0.46,0.06-0.93,0.18-1.41s0.19-0.83,0.21-1.06c-0.18-0.31-0.45-0.52-0.81-0.63
		c-0.36-0.11-0.75-0.16-1.16-0.16c-0.49,0-0.95,0.1-1.39,0.31s-0.87,0.59-1.29,1.15c-0.38,0.51-0.68,1.19-0.91,2.06
		c-0.23,0.86-0.35,1.9-0.35,3.1c0,1.89,0.42,3.44,1.26,4.63c0.84,1.19,1.94,1.79,3.3,1.79c0.99,0,1.81-0.24,2.48-0.72
		c0.67-0.48,1.28-1.2,1.85-2.16l0.97,0.64c-0.67,1.2-1.56,2.15-2.65,2.85C405.11,75.01,403.97,75.36,402.8,75.36z"/>
	<path class="st0" d="M419.33,74.31c-0.66,0.27-1.29,0.51-1.88,0.69s-1.31,0.28-2.17,0.28c-1.26,0-2.15-0.32-2.66-0.95
		c-0.51-0.64-0.77-1.53-0.77-2.69V61.45h-2.72v-1.46h2.78V55.3h2.78v4.68h4.32v1.46h-4.29v8.41c0,0.63,0.02,1.16,0.07,1.58
		c0.05,0.42,0.16,0.79,0.33,1.11c0.16,0.3,0.41,0.52,0.73,0.67c0.33,0.15,0.76,0.23,1.31,0.23c0.25,0,0.63-0.02,1.12-0.07
		s0.84-0.1,1.05-0.18V74.31z"/>
</g>
<g>
	<path class="st1" d="M75.76,65.32c-3.96-2.96-0.57-19.57-7.77-26.29c-3.06-2.86-17.57-9.1-38.86,8.05
		c-0.08,0.06-0.24,0.4,0.58-0.04c1.19-0.64,3.19-1.76,5.71-2.86c19.33-8.37,29.79-2.22,33.79,6.71c3.25,7.25,2.28,10.04,4.06,13.87
		C73.97,66.27,76.95,66.22,75.76,65.32z"/>
	<path class="st1" d="M77.08,64.55c0.14-0.44,0.19-1.01,0.9-2.3c9.97-18.25,33.44-16.76,34.16-30.02c0.45-8.24-6.12-12.07-9.97-9.91
		c-0.15,0.09-0.3,0.43-0.23,0.5c13.12,13.02-13.67,21.74-21.37,34.06c-1.31,1.48-2.97,4.24-4.13,7.31
		C74.91,68.29,75.65,69.06,77.08,64.55z"/>
	<path class="st1" d="M76.77,65.31c-0.04,0.18,1.27-1.66,1.38-1.81c1.85-2.64,8.43-5.76,14.27-6.03c7.07-0.19,10.35,1.04,17.66,3.46
		c0,0,0.01,0,0.01,0c7.38,1.86,22.38,4.11,26.85-5.23c0.24-0.49-0.09-0.84-0.44-0.51c-12.55,11.96-24.91-0.01-29.52-1.02
		C93.19,49.88,77.82,60.21,76.77,65.31z"/>
	<path class="st1" d="M73.15,64.14c0.13,0.17-0.14,0.36-0.29,0.2c-3.38-3.73-9.39-9.25-14.87-10.02c-5.43-0.93-8.38,1.13-16.42,1.96
		c-7.31,1.06-21.81,0.94-25.7-7.95c-0.26-0.59,0.08-1.07,0.44-0.68c11.37,12.17,24.42,2.15,29.02,1.63
		C58.04,46.75,68.22,57.34,73.15,64.14z"/>
	<path class="st1" d="M77.35,68.06c-4.14-9.7,9.02-18.08,10.29-25.23s-5.03-10.85-7.75-15.19c-1.82-2.91-4.92-10.9,4.59-12.63
		c3.75-0.68,2.03-1.27-3.44,0.2c-5.45,1.46-8.57,6.49-7.73,10.81c1.32,6.79,8.63,11.16,8.12,17.1c-0.86,11.17-11.59,15.19-4.27,25.1
		C77.42,68.55,77.44,68.27,77.35,68.06z"/>
	<g>
		<g>
			<path class="st1" d="M68.39,71.49c0.95,0.82,4.42,1.33,8.43,0.43c1.89-0.42,3.78-1.68,4.12-2.2c0.41-0.64,1.76-0.32,2.63-0.26
				c0.63,0.04,45.03,3.18,55.94,3.82c-0.42-2.44-2.69-6.71-3.17-7.05c0,0-0.78,0.05-0.98,0.19c0,0-4.52,0.86-9.38,0.88
				c-7.63,0.02-17.05-4.01-25.08-6.3c-7.39-2.11-17.63-1.8-25.17,4.68c-8.4-6.81-20.14-9.04-40.22-2.62
				c-7.67,2.15-11.34,3.02-16.65,3.59c-2.1,0.15-3.96,0.08-5.82-0.24l-0.4,0.7c-1.04,1.81-2.05,4.44-3.17,6.15l59.12-3.7
				C68.6,69.54,67.88,71.05,68.39,71.49z"/>
			<path class="st1" d="M83.98,70.93c-0.87-0.06-2.21-0.37-2.63,0.26c-0.34,0.52-2.65,1.78-4.55,2.2c-4.01,0.89-8.99,0.28-9.99-0.49
				c-0.89-0.69-0.47-1.9-0.47-1.9L9.47,74.71c-0.01,0.02-0.03,0.05-0.04,0.07c-0.34,0.52,0.52,1.27,0.95,1.72l54.07-3.58
				c0.19,0.04-0.33,2.41,5.35,3.58c4.81,0.99,9.26-0.85,12.6-3.93l6.91,0.38l50.04,3.32c0.25-0.27,0.27-0.82,0.15-1.51
				C128.59,74.1,84.61,70.97,83.98,70.93z"/>
		</g>
	</g>
</g>
</svg>
