<?xml version="1.0" standalone="no"?>
<!DOCTYPE svg PUBLIC "-//W3C//DTD SVG 20010904//EN"
 "http://www.w3.org/TR/2001/REC-SVG-20010904/DTD/svg10.dtd">
<svg version="1.0" xmlns="http://www.w3.org/2000/svg"
 width="2135.000000pt" height="2135.000000pt" viewBox="0 0 2135.000000 2135.000000"
 preserveAspectRatio="xMidYMid meet">
<metadata>
Created by potrace 1.14, written by Peter Selinger 2001-2017
</metadata>
<g transform="translate(0.000000,2135.000000) scale(0.100000,-0.100000)"
fill="#000000" stroke="none">
<path d="M12508 17335 c-2 -1 -40 -5 -85 -9 -45 -3 -87 -8 -95 -10 -7 -3 -31
-8 -53 -11 -90 -13 -114 -18 -192 -36 -44 -10 -94 -21 -110 -24 -15 -3 -64
-14 -108 -25 -44 -12 -91 -23 -105 -26 -95 -20 -360 -124 -422 -166 -14 -10
-29 -18 -33 -18 -4 0 -46 -25 -93 -56 -474 -308 -767 -820 -756 -1321 6 -285
113 -606 322 -963 77 -132 201 -316 394 -586 297 -415 380 -544 474 -738 156
-325 190 -576 128 -934 -8 -45 -17 -99 -20 -120 -20 -138 -120 -452 -211 -665
-61 -142 -248 -515 -283 -562 -4 -5 -21 -35 -37 -65 -16 -30 -50 -91 -75 -135
-209 -364 -313 -578 -378 -780 -38 -119 -37 -113 -60 -245 -14 -79 -18 -142
-15 -255 2 -82 6 -160 8 -171 3 -12 8 -37 11 -55 6 -36 48 -191 61 -224 15
-40 -23 19 -58 91 -57 114 -102 268 -137 464 -16 91 -19 111 -26 159 -3 25 -8
57 -10 71 -2 14 -7 50 -10 80 -3 30 -7 65 -9 77 -2 12 -7 57 -10 100 -4 43 -9
86 -10 95 -2 9 -7 59 -10 110 -4 51 -8 100 -11 108 -2 8 -6 52 -9 97 -4 46 -8
92 -10 104 -2 11 -7 60 -10 107 -3 48 -8 98 -10 112 -2 14 -7 49 -10 78 -3 28
-7 76 -10 105 -3 28 -8 63 -10 77 -2 14 -7 54 -11 90 -3 36 -7 67 -9 70 -1 3
-6 36 -10 75 -4 38 -8 72 -10 75 -1 3 -6 26 -9 52 -5 38 -32 194 -51 293 -2
11 -13 61 -24 110 -12 50 -24 99 -26 109 -54 229 -159 527 -252 711 -140 276
-350 527 -553 663 -168 112 -439 234 -670 302 -41 12 -86 26 -100 31 -14 4
-59 15 -101 23 -42 9 -83 18 -90 20 -8 3 -30 7 -49 10 -19 3 -57 10 -85 15
-27 5 -77 12 -110 16 -33 3 -67 8 -75 10 -8 2 -53 7 -100 10 -47 3 -112 8
-145 10 -73 6 -411 6 -480 0 -27 -2 -87 -7 -132 -10 -46 -3 -91 -8 -100 -9
-10 -2 -48 -7 -85 -10 -37 -4 -77 -9 -90 -11 -40 -6 -102 -16 -128 -20 -133
-19 -400 -80 -609 -139 -311 -88 -688 -229 -971 -363 -172 -81 -364 -177 -445
-222 -44 -24 -102 -56 -130 -71 -27 -15 -113 -65 -190 -110 -77 -46 -149 -88
-160 -94 -63 -36 -373 -243 -545 -363 -216 -151 -610 -456 -610 -472 0 -6 4
-12 9 -15 9 -6 150 62 281 135 84 46 565 289 573 289 3 0 44 18 90 39 47 22
158 69 248 106 90 37 173 71 184 76 60 26 303 114 465 167 326 107 679 200
945 247 87 16 212 36 247 41 55 6 92 11 148 18 259 34 692 39 925 12 17 -2 57
-7 89 -10 88 -10 280 -44 371 -66 852 -205 1511 -727 1906 -1510 195 -387 390
-955 462 -1350 4 -20 25 -127 51 -265 2 -11 7 -40 11 -65 12 -75 15 -92 31
-170 21 -103 73 -299 85 -321 18 -35 -15 -10 -46 34 -35 50 -263 334 -308 385
-41 45 -38 42 -131 147 -184 208 -622 630 -790 760 -21 17 -44 35 -50 41 -79
76 -493 361 -681 469 -410 235 -864 409 -1225 470 -19 3 -60 10 -90 15 -168
28 -317 41 -495 42 -111 1 -335 -9 -375 -17 -9 -2 -41 -6 -71 -10 -173 -21
-459 -84 -483 -106 -6 -5 -17 -9 -24 -9 -8 0 -132 -47 -276 -104 -504 -201
-678 -266 -913 -340 -194 -60 -493 -129 -660 -152 -26 -3 -56 -8 -66 -10 -10
-2 -50 -6 -90 -9 -40 -4 -90 -8 -112 -10 -49 -5 -352 -5 -416 0 -43 3 -82 7
-184 21 -153 20 -462 100 -560 144 -11 5 -60 26 -110 47 -180 75 -386 196
-575 337 -140 104 -199 156 -373 326 -65 63 -126 116 -137 118 -28 5 -51 -37
-46 -84 11 -90 184 -378 305 -508 83 -88 198 -195 256 -238 6 -4 24 -18 40
-32 153 -121 455 -279 712 -370 178 -64 503 -150 643 -171 24 -4 47 -8 50 -10
3 -1 28 -6 55 -9 28 -4 57 -9 65 -11 8 -2 38 -6 65 -10 61 -7 110 -14 150 -20
17 -2 66 -7 110 -11 44 -4 94 -8 110 -10 205 -24 995 -24 1190 0 27 4 146 15
215 21 27 2 135 16 160 20 8 2 44 6 80 10 36 3 76 8 90 10 14 2 50 6 80 10 84
10 263 35 280 40 8 2 40 7 70 10 30 4 87 13 125 20 39 8 88 17 110 20 22 3 46
8 54 11 8 2 30 7 50 10 20 3 148 30 285 60 137 30 258 56 270 58 11 3 66 14
121 26 55 11 116 23 135 26 19 3 53 9 75 14 22 5 69 12 105 16 36 3 68 8 71
10 9 5 256 18 334 17 117 -1 269 -13 350 -27 17 -3 53 -8 80 -12 276 -34 673
-197 1018 -416 110 -70 301 -206 412 -292 79 -62 261 -211 275 -226 3 -3 43
-39 90 -80 96 -84 364 -340 356 -340 -1 0 -69 33 -151 74 -326 161 -731 298
-1095 370 -123 25 -145 28 -360 60 -64 10 -214 27 -270 31 -393 29 -834 25
-1236 -9 -44 -4 -90 -9 -104 -11 -14 -2 -54 -6 -90 -10 -36 -3 -76 -8 -90 -10
-14 -3 -47 -7 -75 -10 -27 -3 -59 -7 -70 -9 -11 -2 -42 -7 -70 -10 -27 -4 -63
-9 -80 -12 -16 -2 -43 -6 -60 -9 -16 -2 -41 -6 -55 -9 -14 -3 -41 -7 -60 -10
-42 -7 -56 -9 -230 -42 -74 -15 -146 -28 -160 -31 -14 -2 -113 -24 -220 -49
-107 -24 -206 -47 -220 -50 -76 -15 -376 -94 -495 -129 -27 -9 -59 -17 -70
-20 -11 -2 -51 -14 -90 -25 -38 -12 -78 -23 -88 -25 -9 -2 -21 -6 -25 -9 -5
-3 -19 -7 -33 -10 -13 -3 -91 -26 -174 -51 -223 -69 -458 -136 -795 -225 -80
-22 -172 -46 -205 -55 -33 -9 -67 -18 -75 -20 -8 -2 -53 -13 -100 -25 -47 -12
-92 -23 -100 -25 -8 -2 -35 -8 -60 -14 -25 -7 -56 -14 -70 -17 -14 -3 -71 -16
-128 -29 -56 -14 -113 -27 -125 -29 -12 -2 -76 -16 -142 -30 -175 -37 -394
-77 -502 -90 -15 -2 -44 -7 -63 -10 -67 -11 -95 -16 -175 -26 -120 -16 -145
-19 -208 -25 -32 -4 -67 -8 -79 -10 -105 -21 -572 -20 -743 0 -69 8 -139 17
-155 20 -8 1 -33 5 -55 9 l-40 6 -53 -92 c-53 -93 -95 -175 -300 -599 -60
-124 -134 -269 -165 -322 -32 -53 -57 -98 -57 -101 0 -5 63 -2 225 9 55 3 127
8 160 10 33 2 105 6 160 10 55 3 127 8 160 10 60 4 189 12 320 20 39 2 106 6
150 9 44 3 123 8 175 11 52 3 129 8 170 11 41 2 107 6 145 9 39 2 106 6 150 9
44 4 121 8 170 11 50 2 122 7 160 10 39 2 111 7 160 10 50 3 122 7 160 10 39
2 115 7 170 10 55 3 123 8 150 10 28 2 100 7 160 11 61 3 133 7 160 9 28 2 97
6 155 9 142 9 264 16 480 31 133 8 253 16 335 20 44 3 112 7 150 10 39 2 117
7 175 10 58 4 126 8 151 10 25 2 100 7 165 10 65 3 139 8 164 10 25 2 92 7
150 10 58 3 130 8 160 10 30 2 100 7 155 10 55 3 129 8 165 10 36 3 108 7 160
10 141 8 237 14 315 20 39 3 108 7 155 10 137 8 338 21 485 30 39 3 111 7 160
10 50 3 126 7 170 10 44 3 116 8 160 10 44 3 112 7 150 10 39 2 111 7 160 10
50 3 122 7 160 10 39 2 111 7 160 10 50 2 125 7 168 10 118 8 223 14 322 20
50 3 119 8 155 10 36 2 108 7 160 10 52 3 124 8 160 10 36 3 106 7 155 10 50
3 122 8 160 10 39 2 115 7 170 10 55 4 123 8 150 10 190 12 285 16 285 11 0
-3 -9 -28 -20 -55 -33 -86 -45 -175 -28 -223 17 -47 170 -121 298 -142 19 -3
45 -8 57 -10 138 -28 576 -29 753 -2 14 2 46 7 71 10 137 19 305 58 374 86 28
12 59 23 65 24 21 4 218 107 271 141 80 52 108 74 174 142 28 28 64 55 81 59
38 11 168 10 269 0 127 -13 134 -14 255 -21 63 -4 131 -8 150 -10 19 -2 80 -6
135 -10 55 -3 120 -8 145 -10 50 -4 196 -14 425 -30 76 -5 135 -9 285 -20 63
-5 152 -11 255 -20 28 -2 102 -6 165 -10 63 -4 131 -8 150 -10 19 -2 82 -6
140 -10 58 -3 125 -8 150 -10 25 -2 90 -7 145 -10 55 -3 118 -8 140 -10 36 -4
147 -12 290 -20 28 -2 86 -6 130 -9 44 -3 114 -9 155 -11 120 -8 220 -15 285
-21 33 -2 92 -7 130 -9 172 -11 263 -17 305 -20 25 -2 86 -6 135 -10 50 -3
119 -8 155 -10 36 -2 103 -7 150 -10 47 -3 110 -8 140 -10 30 -2 91 -7 135
-10 44 -3 107 -8 140 -10 33 -3 105 -7 160 -10 55 -4 120 -8 145 -10 42 -4
133 -10 270 -20 30 -2 102 -6 160 -10 58 -3 125 -8 150 -10 25 -2 86 -7 135
-10 50 -3 117 -8 150 -10 33 -3 98 -7 145 -10 47 -4 114 -8 150 -10 36 -3 103
-7 150 -10 47 -3 110 -7 140 -10 30 -3 93 -7 140 -10 47 -3 119 -8 160 -10
118 -8 219 -15 295 -20 96 -6 228 -15 300 -20 58 -5 179 -13 295 -20 123 -7
248 -16 300 -20 104 -8 215 -16 290 -20 100 -5 253 -15 315 -20 48 -4 180 -13
310 -20 109 -6 279 -17 318 -20 45 -4 45 -2 13 120 -77 285 -309 791 -452 987
-26 35 -40 46 -57 43 -12 -2 -40 -6 -62 -9 -22 -2 -52 -9 -66 -15 -14 -5 -106
-21 -205 -36 -98 -14 -190 -28 -204 -30 -14 -3 -50 -7 -80 -11 -30 -3 -66 -7
-79 -9 -14 -3 -54 -7 -90 -10 -36 -3 -77 -8 -91 -10 -14 -3 -63 -7 -110 -11
-47 -3 -107 -8 -135 -10 -326 -24 -764 -24 -970 1 -163 19 -233 28 -250 31
-11 3 -38 7 -60 10 -22 3 -74 12 -115 19 -41 8 -88 17 -105 20 -42 7 -63 11
-199 41 -252 54 -682 170 -1021 275 -161 50 -655 208 -675 216 -8 3 -19 7 -25
9 -5 1 -59 19 -120 39 -566 185 -621 203 -891 284 -201 61 -422 120 -524 140
-93 19 -102 21 -220 41 -124 21 -150 25 -280 40 -303 35 -839 35 -1107 0 -43
-6 -91 -12 -108 -15 -115 -15 -158 -22 -183 -29 -9 -3 -34 -7 -54 -10 -145
-22 -547 -132 -673 -185 -11 -5 -63 -26 -115 -46 -100 -40 -333 -151 -435
-207 -68 -38 -86 -49 -204 -125 l-83 -55 51 74 c80 113 144 178 315 315 36 29
210 139 291 184 238 132 564 268 860 358 144 44 443 108 590 126 28 4 60 8 71
10 153 24 783 24 969 0 17 -2 57 -7 90 -10 64 -6 199 -23 231 -29 10 -2 39 -7
64 -11 25 -4 54 -9 65 -11 11 -3 38 -7 60 -10 22 -3 54 -9 70 -14 17 -5 57
-14 90 -21 33 -7 65 -13 70 -15 6 -1 39 -10 75 -19 36 -9 74 -19 85 -21 77
-15 451 -130 886 -273 336 -110 402 -130 544 -161 28 -7 57 -13 65 -15 95 -22
401 -82 510 -100 19 -3 46 -7 60 -10 14 -2 43 -7 65 -10 22 -3 51 -7 65 -10
34 -5 172 -23 240 -30 30 -3 71 -8 90 -10 101 -12 168 -17 365 -31 79 -5 594
-5 660 1 120 9 259 23 305 30 14 2 61 9 105 15 432 63 842 222 1137 442 183
137 378 365 482 566 58 113 60 150 9 166 -17 5 -40 -10 -120 -81 -258 -231
-482 -387 -739 -516 -378 -190 -737 -278 -1139 -280 -97 -1 -305 10 -345 18
-14 3 -47 7 -75 11 -90 10 -295 55 -451 99 -374 107 -780 288 -1364 609 -180
99 -462 235 -537 259 -214 68 -412 117 -573 142 -19 3 -46 7 -60 10 -14 3 -43
7 -65 10 -22 3 -53 7 -70 9 -196 26 -688 27 -895 2 -14 -2 -56 -7 -95 -11 -38
-4 -72 -8 -75 -10 -3 -2 -27 -6 -55 -9 -27 -3 -61 -8 -75 -11 -14 -3 -41 -8
-60 -11 -19 -3 -42 -7 -50 -9 -8 -2 -31 -7 -50 -10 -206 -35 -624 -159 -890
-265 -233 -93 -514 -228 -710 -340 -209 -120 -498 -317 -637 -432 -244 -204
-418 -388 -533 -563 -29 -44 -49 -69 -45 -55 71 245 384 740 706 1115 148 172
436 458 587 581 13 10 36 29 50 42 15 13 43 35 62 50 19 15 66 52 105 82 232
184 598 424 948 622 249 140 321 178 922 479 516 259 717 362 835 427 25 14
70 38 100 54 95 52 325 191 328 200 2 4 8 8 13 8 5 0 53 30 107 67 286 196
520 421 665 639 80 120 175 328 202 440 3 10 11 46 19 79 8 33 17 80 20 105 3
25 9 70 13 100 13 111 7 391 -12 505 -3 17 -8 46 -11 65 -11 73 -46 203 -75
287 -152 432 -459 752 -840 877 -230 75 -442 67 -647 -26 -44 -20 -84 -70 -75
-94 3 -8 34 -45 70 -82 326 -339 501 -703 508 -1054 5 -266 -63 -487 -245
-797 -165 -280 -530 -669 -1000 -1066 -120 -101 -412 -335 -630 -505 -102 -80
-192 -150 -200 -157 -8 -6 -123 -96 -255 -199 -132 -103 -242 -190 -245 -193
-3 -3 -63 -53 -135 -111 -71 -57 -162 -131 -201 -165 -38 -33 -86 -73 -106
-90 -401 -339 -755 -716 -983 -1046 -44 -62 -105 -145 -136 -184 -90 -111
-221 -315 -335 -520 -47 -86 -174 -352 -199 -420 -40 -105 -47 -108 -41 -21 8
101 48 296 86 414 80 250 226 538 426 842 78 119 235 346 267 385 14 18 257
344 402 540 389 526 582 886 620 1155 3 25 8 52 10 60 8 29 18 176 17 255 -5
399 -146 754 -466 1164 -69 89 -237 286 -350 411 -37 41 -178 202 -220 250
-198 228 -353 484 -451 740 -36 96 -81 245 -90 300 -3 19 -12 73 -20 120 -22
135 -14 342 19 463 97 363 383 609 851 733 6 1 87 19 180 38 256 54 350 85
327 108 -9 9 -106 20 -114 13z"/>
<path d="M11885 8114 c-49 -13 -76 -28 -100 -59 -54 -72 -308 -213 -518 -289
-159 -58 -309 -91 -542 -120 -186 -24 -631 -24 -775 -2 -14 3 -51 7 -84 11
-67 8 -84 11 -186 31 -276 56 -360 135 -348 328 l5 75 -46 -4 c-25 -2 -95 -7
-156 -10 -60 -4 -126 -8 -145 -10 -19 -2 -89 -6 -155 -10 -66 -4 -136 -8 -155
-10 -19 -2 -91 -6 -160 -10 -69 -3 -136 -8 -150 -10 -14 -2 -77 -6 -140 -10
-63 -3 -142 -8 -175 -10 -57 -5 -87 -7 -305 -20 -52 -3 -117 -7 -145 -10 -27
-2 -99 -7 -160 -11 -60 -3 -130 -7 -155 -9 -25 -3 -92 -7 -150 -10 -58 -3
-125 -8 -150 -10 -25 -2 -92 -7 -150 -10 -120 -7 -204 -12 -305 -20 -38 -2
-106 -7 -150 -10 -201 -13 -244 -15 -310 -20 -65 -4 -118 -8 -320 -20 -44 -3
-111 -7 -150 -10 -38 -3 -106 -7 -150 -10 -44 -3 -114 -7 -155 -10 -41 -3
-111 -7 -155 -10 -44 -3 -111 -8 -150 -10 -38 -3 -108 -7 -155 -10 -47 -3
-114 -8 -150 -10 -62 -5 -96 -7 -305 -20 -49 -3 -117 -8 -150 -10 -33 -2 -107
-7 -165 -10 -58 -3 -125 -8 -150 -10 -25 -2 -94 -7 -155 -11 -60 -3 -130 -8
-155 -9 -25 -2 -90 -6 -145 -9 -55 -4 -125 -8 -155 -11 -30 -2 -98 -7 -150
-10 -92 -6 -174 -11 -310 -20 -36 -2 -105 -7 -155 -10 -49 -3 -117 -7 -150
-10 -33 -2 -103 -7 -155 -10 -52 -3 -124 -8 -160 -10 -36 -2 -108 -7 -160 -10
-52 -3 -120 -8 -150 -10 -30 -3 -96 -7 -146 -10 -50 -3 -117 -7 -150 -10 -32
-2 -102 -6 -154 -10 -52 -3 -122 -8 -155 -10 -33 -3 -107 -7 -165 -11 -58 -3
-121 -7 -140 -9 -19 -2 -89 -6 -155 -10 -66 -4 -138 -8 -160 -10 -22 -2 -89
-6 -150 -10 -60 -4 -126 -8 -145 -10 -19 -2 -93 -6 -163 -10 -154 -8 -169 -10
-184 -31 -30 -41 10 -123 108 -222 l53 -53 75 5 c42 3 111 8 154 11 42 3 110
7 150 10 127 9 240 16 307 20 98 6 226 15 305 21 93 6 191 13 295 19 47 2 119
7 160 10 124 9 200 14 300 20 52 4 115 8 140 10 25 2 92 7 150 11 58 3 121 7
140 9 19 1 87 5 150 9 63 4 140 9 170 11 30 2 100 7 155 10 55 3 118 8 140 9
22 2 90 7 150 10 61 4 133 9 160 11 28 2 95 7 150 10 55 3 123 8 150 10 28 3
95 7 150 10 55 3 125 8 155 10 30 2 98 7 150 10 52 4 115 8 140 10 25 2 97 6
160 10 63 4 131 8 150 10 19 2 89 6 155 10 66 3 138 8 160 10 22 3 83 7 135
10 52 3 115 7 140 9 25 3 97 7 160 11 63 3 135 8 160 10 25 2 95 6 155 10 61
3 126 8 145 10 19 2 85 6 145 10 61 3 133 8 160 10 28 3 95 7 150 11 55 3 125
7 155 9 30 2 98 7 150 10 52 3 120 8 150 10 30 2 96 7 145 10 50 3 117 7 150
10 33 2 101 7 150 10 50 3 124 8 165 10 41 3 102 8 135 10 33 2 105 7 160 10
55 3 125 8 155 10 30 3 98 7 150 10 52 3 120 8 150 10 30 2 96 7 145 10 50 3
117 8 150 10 33 2 105 7 160 10 55 3 118 8 140 10 72 7 288 19 364 19 l74 1
12 -46 c40 -155 165 -279 379 -380 73 -34 238 -94 283 -104 10 -2 56 -13 103
-24 47 -11 99 -23 115 -25 17 -3 41 -8 54 -11 14 -2 47 -7 75 -10 28 -3 70 -8
93 -11 111 -14 360 -6 493 16 30 5 71 12 90 15 383 63 858 308 1184 608 l41
38 115 -6 c137 -7 255 -13 370 -21 47 -3 128 -7 180 -9 245 -12 301 -14 385
-20 50 -3 119 -8 155 -10 106 -8 219 -15 310 -20 47 -3 110 -7 140 -9 30 -3
100 -8 155 -12 55 -3 123 -8 150 -10 28 -2 93 -6 145 -9 96 -6 150 -9 295 -19
178 -13 253 -18 320 -22 122 -6 238 -14 295 -19 30 -3 93 -7 140 -10 85 -4
201 -12 295 -20 28 -2 104 -6 170 -10 66 -3 134 -8 150 -10 17 -2 80 -7 140
-10 61 -3 128 -7 150 -10 22 -2 90 -7 150 -10 61 -3 133 -8 160 -10 28 -2 95
-7 150 -10 55 -3 125 -8 155 -10 30 -2 96 -6 145 -10 50 -3 117 -8 150 -10 91
-7 201 -14 295 -20 47 -3 114 -7 150 -9 36 -3 106 -8 155 -11 50 -3 117 -8
150 -10 118 -8 241 -17 305 -20 88 -6 290 -19 450 -30 36 -2 108 -7 160 -10
52 -4 115 -8 139 -10 24 -3 94 -7 155 -10 61 -3 129 -8 151 -10 22 -2 85 -7
140 -10 55 -4 123 -8 150 -10 28 -2 100 -6 160 -10 61 -3 128 -8 151 -10 22
-2 88 -7 145 -10 57 -3 127 -8 154 -10 28 -2 95 -6 150 -10 55 -3 123 -8 150
-10 28 -3 93 -8 145 -11 52 -3 120 -7 150 -9 30 -2 102 -6 160 -10 58 -3 130
-8 160 -10 157 -12 272 -19 335 -19 67 -1 70 0 84 28 15 32 19 119 7 179 l-7
37 -62 1 c-34 1 -73 2 -87 4 -14 1 -81 6 -150 10 -69 3 -141 8 -160 10 -19 2
-82 6 -140 10 -58 3 -130 7 -160 10 -30 2 -100 6 -155 10 -55 3 -125 8 -155
10 -30 2 -95 7 -145 10 -49 3 -112 7 -138 10 -26 2 -103 6 -170 10 -67 4 -138
8 -157 10 -56 5 -220 17 -285 20 -79 4 -238 14 -300 20 -27 2 -88 7 -135 10
-47 3 -114 8 -150 10 -36 2 -105 7 -155 10 -49 3 -112 7 -140 10 -27 2 -95 7
-150 10 -55 4 -120 8 -144 10 -24 3 -89 7 -145 10 -55 3 -121 8 -146 10 -45 4
-123 10 -295 20 -49 3 -115 8 -145 10 -30 3 -91 7 -135 10 -44 3 -107 7 -140
10 -33 2 -100 7 -150 10 -49 3 -112 7 -140 10 -27 2 -93 7 -145 10 -108 7
-157 11 -285 20 -107 8 -149 11 -275 19 -238 16 -383 26 -440 31 -19 2 -84 6
-145 10 -60 4 -126 8 -145 10 -19 2 -78 6 -130 10 -52 3 -120 8 -150 10 -30 2
-98 7 -150 10 -52 3 -115 8 -140 10 -25 2 -85 6 -135 10 -49 3 -112 7 -140 10
-27 2 -93 7 -145 10 -52 4 -113 8 -135 10 -22 1 -92 6 -155 10 -63 3 -126 8
-140 10 -14 2 -79 7 -144 10 -66 4 -127 8 -135 10 -9 1 -70 6 -136 10 -66 4
-138 8 -160 10 -22 3 -78 7 -125 10 -47 3 -112 7 -145 10 -33 2 -96 7 -140 10
-44 3 -111 7 -150 11 -76 6 -140 10 -282 19 -50 3 -115 8 -145 10 -29 2 -91 7
-138 10 -47 4 -101 9 -120 11 -60 8 -254 13 -275 8z"/>
</g>
</svg>
